<svg xmlns="http://www.w3.org/2000/svg" width="21.533" height="21.533" viewBox="0 0 21.533 21.533"><defs><style>.a{fill:#2b2b2b;}</style></defs><g transform="translate(0 0)"><g transform="translate(0 0)"><path class="a" d="M21.115,17.122l-2.387-1.592-2.122-1.414a.94.94,0,0,0-1.262.2L14.03,16.009a.935.935,0,0,1-1.194.248,15.289,15.289,0,0,1-4.269-3.29A15.4,15.4,0,0,1,5.277,8.7.935.935,0,0,1,5.524,7.5L7.212,6.19a.94.94,0,0,0,.2-1.262L6.046,2.871,4.411.419A.94.94,0,0,0,3.146.134L1.26,1.265A2.3,2.3,0,0,0,.214,2.619C-.3,4.5-.406,8.647,6.241,15.293s10.794,6.542,12.674,6.027a2.3,2.3,0,0,0,1.354-1.046L21.4,18.388A.94.94,0,0,0,21.115,17.122Z" transform="translate(0 0)"/><path class="a" d="M282.853,62.535a6.318,6.318,0,0,1,6.311,6.311.371.371,0,0,0,.743,0,7.062,7.062,0,0,0-7.054-7.054.371.371,0,0,0,0,.743Z" transform="translate(-270.602 -59.193)"/><path class="a" d="M282.852,115.5a4.089,4.089,0,0,1,4.084,4.084.371.371,0,1,0,.743,0,4.832,4.832,0,0,0-4.826-4.826.371.371,0,0,0,0,.743Z" transform="translate(-270.601 -109.93)"/><path class="a" d="M282.853,168.466a1.859,1.859,0,0,1,1.856,1.856.371.371,0,1,0,.742,0,2.6,2.6,0,0,0-2.6-2.6.371.371,0,0,0,0,.743Z" transform="translate(-270.602 -160.669)"/></g></g></svg>