<svg xmlns="http://www.w3.org/2000/svg" width="16.571" height="21.543" viewBox="0 0 16.571 21.543"><defs><style>.a{fill:#fff;}</style></defs><g transform="translate(-217.912 -394.229)"><path class="a" d="M15.105,121.632a13.345,13.345,0,0,1-5.82,1.258,13.345,13.345,0,0,1-5.82-1.258A4.473,4.473,0,0,0,1,125.286v3.424c0,.567.742,1.027,1.657,1.027H15.914c.915,0,1.657-.46,1.657-1.027v-3.424A4.473,4.473,0,0,0,15.105,121.632Z" transform="translate(216.912 286.034)"/><path class="a" d="M27.076,12.152a6.076,6.076,0,1,1,6.076-6.076A6.083,6.083,0,0,1,27.076,12.152Z" transform="translate(199.121 394.229)"/></g></svg>