<svg xmlns="http://www.w3.org/2000/svg" width="24.614" height="16.922" viewBox="0 0 24.614 16.922"><defs><style>.a{fill:#2b2b2b;}</style></defs><g transform="translate(0 -80)"><g transform="translate(16.316 83.12)"><path class="a" d="M339.392,150.363l8.3,5.246V144.9Z" transform="translate(-339.392 -144.896)"/></g><g transform="translate(0 83.12)"><path class="a" d="M0,144.9v10.713l8.3-5.246Z" transform="translate(0 -144.896)"/></g><g transform="translate(0.046 80)"><g transform="translate(0 0)"><path class="a" d="M23.989,80H2.452A1.519,1.519,0,0,0,.96,81.309l12.261,8.078,12.261-8.078A1.519,1.519,0,0,0,23.989,80Z" transform="translate(-0.96 -80)"/></g></g><g transform="translate(0.049 89.515)"><g transform="translate(0 0)"><path class="a" d="M15.881,277.922,13.7,279.355a.772.772,0,0,1-.846,0l-2.177-1.435-9.658,6.109a1.517,1.517,0,0,0,1.489,1.3H24.05a1.517,1.517,0,0,0,1.489-1.3Z" transform="translate(-1.024 -277.92)"/></g></g></g></svg>