<svg xmlns="http://www.w3.org/2000/svg" width="27" height="26.999" viewBox="0 0 27 26.999"><defs><style>.a{fill:#2680eb;}</style></defs><g transform="translate(0 0)"><path class="a" d="M21.375,94.816a1.125,1.125,0,0,0-1.125,1.125v9a1.126,1.126,0,0,1-1.125,1.125H3.375a1.126,1.126,0,0,1-1.125-1.125V89.191a1.126,1.126,0,0,1,1.125-1.125h9a1.125,1.125,0,0,0,0-2.25h-9A3.379,3.379,0,0,0,0,89.191v15.75a3.379,3.379,0,0,0,3.375,3.375h15.75a3.379,3.379,0,0,0,3.375-3.375v-9A1.124,1.124,0,0,0,21.375,94.816Zm0,0" transform="translate(0 -81.317)"/><path class="a" d="M182.768,77.163a.569.569,0,0,0-.154.287l-.8,3.978a.562.562,0,0,0,.552.673.535.535,0,0,0,.11-.011l3.977-.8a.56.56,0,0,0,.288-.154l8.9-8.9-3.977-3.977Zm0,0" transform="translate(-172.22 -64.688)"/><path class="a" d="M396.979,1.324a2.814,2.814,0,0,0-3.977,0l-1.557,1.557,3.977,3.977L396.979,5.3a2.812,2.812,0,0,0,0-3.977Zm0,0" transform="translate(-370.803 -0.501)"/></g></svg>