<svg xmlns="http://www.w3.org/2000/svg" width="13.705" height="17.817" viewBox="0 0 13.705 17.817"><defs><style>.a{fill:#2b2b2b;}</style></defs><g transform="translate(-217.912 -394.229)"><path class="a" d="M12.666,121.632a11.037,11.037,0,0,1-4.813,1.04,11.037,11.037,0,0,1-4.813-1.04A3.7,3.7,0,0,0,1,124.654v2.832c0,.469.614.849,1.371.849H13.335c.757,0,1.371-.38,1.371-.849v-2.832A3.7,3.7,0,0,0,12.666,121.632Z" transform="translate(216.912 283.71)"/><path class="a" d="M26.025,10.05A5.025,5.025,0,1,1,31.05,5.025,5.031,5.031,0,0,1,26.025,10.05Z" transform="translate(198.739 394.229)"/></g></svg>