<svg xmlns="http://www.w3.org/2000/svg" width="20.731" height="22.113" viewBox="0 0 20.731 22.113"><defs><style>.a{fill:#5f78f6;}</style></defs><g transform="translate(-16)"><g transform="translate(20.837)"><path class="a" d="M138.993,10.08a.689.689,0,0,0-.629-.4H135.6V.691A.691.691,0,0,0,134.909,0h-2.764a.691.691,0,0,0-.691.691V9.675h-2.764a.691.691,0,0,0-.52,1.146l4.837,5.528a.689.689,0,0,0,1.039,0l4.837-5.528A.689.689,0,0,0,138.993,10.08Z" transform="translate(-127.998)"/></g><g transform="translate(16 15.203)"><path class="a" d="M33.967,352v4.146h-15.2V352H16v5.528a1.382,1.382,0,0,0,1.382,1.382H35.349a1.381,1.381,0,0,0,1.382-1.382V352Z" transform="translate(-16 -352)"/></g></g></svg>