<svg xmlns="http://www.w3.org/2000/svg" width="105" height="94" viewBox="0 0 105 94"><defs><style>.a{fill:#eaf3ff;}.b{fill:#2680eb;}</style></defs><g transform="translate(-407 -164)"><rect class="a" width="105" height="94" rx="8" transform="translate(407 164)"/><g transform="translate(435.931 189.397)"><path class="b" d="M22.789,11.507a2.113,2.113,0,0,1-2.113-2.113V6.225H12.225V9.395A2.113,2.113,0,0,1,8,9.395V6.225A4.23,4.23,0,0,1,12.225,2h8.451A4.23,4.23,0,0,1,24.9,6.225V9.395A2.113,2.113,0,0,1,22.789,11.507Z" transform="translate(8.902 -2)"/><path class="b" d="M26.853,19.564a4.352,4.352,0,0,1-1.5.254,4.629,4.629,0,0,1-1.627-.3L0,11.62V27.74a5.807,5.807,0,0,0,5.81,5.81H44.9a5.807,5.807,0,0,0,5.81-5.81V11.62Z" transform="translate(0 8.704)"/><path class="b" d="M50.705,10.81v4.838L25.86,23.93a1.563,1.563,0,0,1-1.014,0L0,15.648V10.81A5.807,5.807,0,0,1,5.81,5H44.9A5.807,5.807,0,0,1,50.705,10.81Z" transform="translate(0 1.338)"/></g></g></svg>