<svg xmlns="http://www.w3.org/2000/svg" width="11.852" height="13.291" viewBox="0 0 11.852 13.291"><defs><style>.a{fill:#2b2b2b;}</style></defs><path class="a" d="M12.276,1.44h-.4V1A.974.974,0,1,0,9.928,1v.437h-1V1A.974.974,0,1,0,6.982,1v.437h-1V1A.974.974,0,1,0,4.035,1v.437H3.524a1.552,1.552,0,0,0-1.55,1.55v8.752a1.552,1.552,0,0,0,1.55,1.55h8.752a1.552,1.552,0,0,0,1.55-1.55V2.989A1.552,1.552,0,0,0,12.276,1.44ZM10.475,1a.428.428,0,1,1,.853,0V2.788a.428.428,0,1,1-.853,0ZM7.529,1a.428.428,0,1,1,.853,0V2.788a.428.428,0,1,1-.853,0ZM4.582,1a.428.428,0,1,1,.853,0V2.788a.428.428,0,1,1-.853,0Zm8.332,10.739a.639.639,0,0,1-.638.638H3.524a.639.639,0,0,1-.638-.638V3.719H12.914Z" transform="translate(-1.974)"/><rect class="a" width="1.676" height="1.491" transform="translate(1.732 5.334)"/><rect class="a" width="1.676" height="1.491" transform="translate(3.969 5.334)"/><rect class="a" width="1.676" height="1.491" transform="translate(6.207 5.334)"/><rect class="a" width="1.676" height="1.491" transform="translate(8.444 5.334)"/><rect class="a" width="1.676" height="1.49" transform="translate(1.732 7.324)"/><rect class="a" width="1.676" height="1.49" transform="translate(3.969 7.324)"/><rect class="a" width="1.676" height="1.49" transform="translate(6.207 7.324)"/><rect class="a" width="1.676" height="1.49" transform="translate(8.444 7.324)"/><rect class="a" width="1.676" height="1.49" transform="translate(1.732 9.314)"/><rect class="a" width="1.676" height="1.49" transform="translate(3.969 9.314)"/><rect class="a" width="1.676" height="1.49" transform="translate(6.207 9.314)"/><rect class="a" width="1.676" height="1.49" transform="translate(8.444 9.314)"/></svg>