<svg xmlns="http://www.w3.org/2000/svg" width="105" height="94" viewBox="0 0 105 94"><defs><style>.a{fill:#ffe6ce;}.b{fill:#f8aa71;}</style></defs><g transform="translate(-819 -164)"><rect class="a" width="105" height="94" rx="8" transform="translate(819 164)"/><g transform="translate(841 106.064)"><g transform="translate(21.022 85.333)"><g transform="translate(0 0)"><circle class="b" cx="9.197" cy="9.197" r="9.197"/></g></g><g transform="translate(42.045 95.844)"><circle class="b" cx="6.569" cy="6.569" r="6.569"/></g><g transform="translate(5.442 95.844)"><circle class="b" cx="6.569" cy="6.569" r="6.569"/></g><g transform="translate(13.139 106.356)"><path class="b" d="M123.747,256a17.1,17.1,0,0,0-17.081,17.081,1.314,1.314,0,0,0,1.314,1.314h31.534a1.314,1.314,0,0,0,1.314-1.314A17.1,17.1,0,0,0,123.747,256Z" transform="translate(-106.666 -256)"/></g><g transform="translate(0 111.611)"><path class="b" d="M14.277,298.951a11.786,11.786,0,0,0-2.452-.284A11.84,11.84,0,0,0,0,310.492a1.314,1.314,0,0,0,1.314,1.314h9.439a3.9,3.9,0,0,1-.242-1.314A19.585,19.585,0,0,1,14.277,298.951Z" transform="translate(0 -298.667)"/></g><g transform="translate(46.163 111.611)"><g transform="translate(0 0)"><path class="b" d="M377.215,298.667a11.788,11.788,0,0,0-2.452.284,19.585,19.585,0,0,1,3.766,11.541,3.9,3.9,0,0,1-.242,1.314h9.439a1.314,1.314,0,0,0,1.314-1.314A11.84,11.84,0,0,0,377.215,298.667Z" transform="translate(-374.763 -298.667)"/></g></g></g></g></svg>