<svg xmlns="http://www.w3.org/2000/svg" width="42.2" height="42.2" viewBox="0 0 42.2 42.2"><defs><style>.a{fill:#5471e8;}</style></defs><g transform="translate(-8.1 -8.1)"><g transform="translate(8.1 8.1)"><path class="a" d="M1.2-227.7a21.1,21.1,0,0,1-21.1-21.1A21.1,21.1,0,0,1,1.2-269.9a21.1,21.1,0,0,1,21.1,21.1A21.1,21.1,0,0,1,1.2-227.7Zm0-39.9a18.877,18.877,0,0,0-18.8,18.8A18.877,18.877,0,0,0,1.2-230,18.877,18.877,0,0,0,20-248.8,18.877,18.877,0,0,0,1.2-267.6Z" transform="translate(19.9 269.9)"/><path class="a" d="M-8.7-247.4H13.724v2.472H-8.7Z" transform="translate(18.588 267.264)"/><path class="a" d="M2.6-258.7H5.072v22.424H2.6Z" transform="translate(17.264 268.588)"/></g></g></svg>