<svg xmlns="http://www.w3.org/2000/svg" width="105" height="94" viewBox="0 0 105 94"><defs><style>.a{fill:#e2fff5;}.b{fill:#21d59b;}</style></defs><g transform="translate(-1231 -164)"><rect class="a" width="105" height="94" rx="8" transform="translate(1231 164)"/><g transform="translate(1217.771 188.41)"><g transform="translate(55.376)"><g transform="translate(0)"><path class="b" d="M141.353,0a10.353,10.353,0,1,0,10.353,10.353A10.364,10.364,0,0,0,141.353,0Z" transform="translate(-131)"/></g></g><g transform="translate(61.009 23.19)"><path class="b" d="M203.871,280h-.322a16.362,16.362,0,0,0-4.53.641l4.721,7.3,4.715-7.292A16.532,16.532,0,0,0,203.871,280Z" transform="translate(-199.019 -280)"/></g><g transform="translate(66.971 24.73)"><g transform="translate(0)"><path class="b" d="M286.133,310.97a16.347,16.347,0,0,0-9.276-12.37L271,307.657v8.617h15.939Z" transform="translate(-271 -298.6)"/></g></g><g transform="translate(48.547 24.722)"><g transform="translate(0)"><path class="b" d="M58.627,298.5a16.369,16.369,0,0,0-9.274,12.378l-.806,5.3H64.486V307.56Z" transform="translate(-48.547 -298.5)"/></g></g></g></g></svg>