<svg xmlns="http://www.w3.org/2000/svg" width="105" height="94" viewBox="0 0 105 94"><defs><style>.a{fill:#fae5ff;}.b{fill:#d019ff;}</style></defs><g transform="translate(-1643 -164)"><rect class="a" width="105" height="94" rx="8" transform="translate(1643 164)"/><g transform="translate(1676 193)"><path class="b" d="M24.488,13.675a1.517,1.517,0,0,0,.007,2.147l.538.538a.252.252,0,1,1-.357.357l-1.255-1.255a1.513,1.513,0,1,0-2.14,2.14l1.255,1.255a.252.252,0,1,1-.357.357L20.207,17.24a1.513,1.513,0,1,0-2.14,2.14l1.973,1.973a.252.252,0,1,1-.357.357l-7-7a1.513,1.513,0,1,0-2.14,2.14l8.418,8.418c-1.1-.172-2.96-.245-4.1.893-1.07,1.07-1.042,1.81-.71,2.143.905.905,1.6-.525,5.725,1.445s6.773,1.808,8.585.027l2.5-2.5h0c2.538-2.538,3.265-6.008.7-8.568l-.013-.013-5.022-5.022a1.514,1.514,0,0,0-2.143-.007Z" transform="translate(6.733 8.823)"/><path class="b" d="M31.667,0H5A5,5,0,0,0,5,10H31.667a5,5,0,0,0,0-10ZM5,6.667A1.667,1.667,0,1,1,6.667,5,1.667,1.667,0,0,1,5,6.667Zm6.667,0A1.667,1.667,0,1,1,13.333,5,1.667,1.667,0,0,1,11.667,6.667Z"/><path class="b" d="M31.667,8H5A5,5,0,0,0,5,18h8.667a4.856,4.856,0,0,1,8.117-2.15L23.5,17.567a4.578,4.578,0,0,1,1.8-.583A4.8,4.8,0,0,1,28.517,15.2c1.452-1.937,4.758-2.842,7.617.017A4.733,4.733,0,0,0,36.667,13a4.993,4.993,0,0,0-5-5ZM5,14.667A1.667,1.667,0,1,1,6.667,13,1.672,1.672,0,0,1,5,14.667Zm6.667,0A1.667,1.667,0,1,1,13.333,13,1.672,1.672,0,0,1,11.667,14.667Z" transform="translate(0 5.333)"/><path class="b" d="M14.933,17.367A4.856,4.856,0,0,1,13.967,16H5A5,5,0,0,0,5,26H17.35a5.851,5.851,0,0,1,2.033-4.167ZM5,22.667A1.667,1.667,0,1,1,6.667,21,1.672,1.672,0,0,1,5,22.667Zm6.667,0A1.667,1.667,0,1,1,13.333,21,1.672,1.672,0,0,1,11.667,22.667Z" transform="translate(0 10.667)"/></g></g></svg>