<svg xmlns="http://www.w3.org/2000/svg" width="18.915" height="15.763" viewBox="0 0 18.915 15.763"><defs><style>.a{fill:#9d9d9d;}</style></defs><g transform="translate(0 -2)"><path class="a" d="M13.517,5.547a.788.788,0,0,1-.788-.788V3.576H9.576V4.758A.788.788,0,0,1,8,4.758V3.576A1.578,1.578,0,0,1,9.576,2h3.153a1.578,1.578,0,0,1,1.576,1.576V4.758A.788.788,0,0,1,13.517,5.547Z" transform="translate(-1.695)"/><path class="a" d="M10.017,14.583a1.623,1.623,0,0,1-.56.095,1.727,1.727,0,0,1-.607-.11L0,11.62v6.013A2.166,2.166,0,0,0,2.167,19.8h14.58a2.166,2.166,0,0,0,2.167-2.167V11.62Z" transform="translate(0 -2.038)"/><path class="a" d="M18.915,7.167v1.8L9.647,12.062a.583.583,0,0,1-.378,0L0,8.972v-1.8A2.166,2.166,0,0,1,2.167,5h14.58A2.166,2.166,0,0,1,18.915,7.167Z" transform="translate(0 -0.636)"/></g></svg>