<svg xmlns="http://www.w3.org/2000/svg" width="28.25" height="21.188" viewBox="0 0 28.25 21.188"><defs><style>.a{fill:#b5b5b5;}</style></defs><g transform="translate(0 -64)"><g transform="translate(0 64)"><g transform="translate(0 0)"><path class="a" d="M7.122,65.719C11,69,17.8,74.779,19.8,76.581a1.181,1.181,0,0,0,1.709,0c2-1.8,8.8-7.58,12.682-10.864a.588.588,0,0,0,.083-.812A2.337,2.337,0,0,0,32.428,64H8.886a2.337,2.337,0,0,0-1.847.907A.588.588,0,0,0,7.122,65.719Z" transform="translate(-6.532 -64)"/><path class="a" d="M27.909,126.466a.586.586,0,0,0-.628.085c-4.3,3.645-9.787,8.317-11.514,9.873a2.383,2.383,0,0,1-3.285,0c-1.84-1.658-8-6.9-11.513-9.872A.589.589,0,0,0,0,127v14.8a2.356,2.356,0,0,0,2.354,2.354H25.9A2.356,2.356,0,0,0,28.25,141.8V127A.588.588,0,0,0,27.909,126.466Z" transform="translate(0 -122.968)"/></g></g></g></svg>