<svg xmlns="http://www.w3.org/2000/svg" width="25.041" height="25.094" viewBox="0 0 25.041 25.094"><defs><style>.a{fill:#b5b5b5;}</style></defs><g transform="translate(-0.539)"><g transform="translate(0.539 0)"><path class="a" d="M24.924,18.416l-3.5-3.5a2.329,2.329,0,0,0-3.877.875,2.383,2.383,0,0,1-2.751,1.5c-2.5-.625-5.878-3.877-6.5-6.5a2.267,2.267,0,0,1,1.5-2.751,2.329,2.329,0,0,0,.875-3.877l-3.5-3.5a2.5,2.5,0,0,0-3.377,0L1.411,3.033c-2.376,2.5.25,9.13,6.128,15.008s12.507,8.63,15.008,6.128l2.376-2.376A2.5,2.5,0,0,0,24.924,18.416Z" transform="translate(-0.539 0)"/></g></g></svg>