<svg xmlns="http://www.w3.org/2000/svg" width="37" height="36.999" viewBox="0 0 37 36.999"><defs><style>.a{fill:#b5b5b5;}</style></defs><g transform="translate(0 -0.501)"><path class="a" d="M29.292,98.15a1.541,1.541,0,0,0-1.542,1.542v12.333a1.543,1.543,0,0,1-1.542,1.542H4.625a1.543,1.543,0,0,1-1.542-1.542V90.441A1.543,1.543,0,0,1,4.625,88.9H16.958a1.542,1.542,0,0,0,0-3.083H4.625A4.631,4.631,0,0,0,0,90.441v21.583a4.631,4.631,0,0,0,4.625,4.625H26.208a4.631,4.631,0,0,0,4.625-4.625V99.691A1.54,1.54,0,0,0,29.292,98.15Zm0,0" transform="translate(0 -79.15)"/><path class="a" d="M183.124,80.459a.78.78,0,0,0-.211.393l-1.09,5.452a.77.77,0,0,0,.757.922.733.733,0,0,0,.151-.015l5.45-1.09a.767.767,0,0,0,.395-.211l12.2-12.2-5.45-5.45Zm0,0" transform="translate(-168.67 -62.864)"/><path class="a" d="M399.029,1.628a3.857,3.857,0,0,0-5.45,0l-2.134,2.134,5.45,5.45,2.134-2.134a3.854,3.854,0,0,0,0-5.45Zm0,0" transform="translate(-363.157)"/></g></svg>