<svg xmlns="http://www.w3.org/2000/svg" xmlns:xlink="http://www.w3.org/1999/xlink" width="1708" height="241" viewBox="0 0 1708 241"><defs><style>.a,.d{fill:none;}.b{clip-path:url(#a);}.c{fill:#fff;}.d{stroke:rgba(0,0,0,0.12);stroke-miterlimit:10;}.e,.f,.g,.h{fill:#5471e8;}.e{opacity:0.091;}.f{opacity:0.103;}.g{opacity:0.099;}.h{opacity:0.095;}.i{stroke:none;}.j{filter:url(#b);}</style><clipPath id="a"><rect class="a" width="1708" height="241" transform="translate(8370 4551)"/></clipPath><filter id="b" x="-1.5" y="-2" width="1711" height="244.5" filterUnits="userSpaceOnUse"><feOffset dy="2" input="SourceAlpha"/><feGaussianBlur stdDeviation="0.5" result="c"/><feFlood flood-opacity="0.161"/><feComposite operator="in" in2="c"/><feComposite in="SourceGraphic"/></filter></defs><g class="b" transform="translate(-8370 -4551)"><g transform="translate(8370.313 4548.612)"><g class="j" transform="matrix(1, 0, 0, 1, -0.31, 2.39)"><rect class="c" width="1708" height="241" rx="8" transform="translate(0 -2)"/></g><g class="d" transform="translate(-0.313 0.388)"><rect class="i" width="1708" height="241" rx="4"/><rect class="a" x="0.5" y="0.5" width="1707" height="240" rx="3.5"/></g></g><path class="e" d="M133,0c73.454,0,133,59.77,133,133.5S206.454,267,133,267,0,207.23,0,133.5,59.546,0,133,0Z" transform="translate(9725 4638)"/><path class="f" d="M133,0c73.454,0,133,59.77,133,133.5S206.454,267,133,267,0,207.23,0,133.5,59.546,0,133,0Z" transform="translate(8308 4598)"/><ellipse class="g" cx="41" cy="40.5" rx="41" ry="40.5" transform="translate(9469 4731)"/><ellipse class="h" cx="18" cy="18.5" rx="18" ry="18.5" transform="translate(9704 4620)"/></g></svg>