<svg xmlns="http://www.w3.org/2000/svg" width="40" height="40" viewBox="0 0 40 40"><defs><style>.a{fill:none;}.b{fill:rgba(0,0,0,0.29);}</style></defs><g transform="translate(-0.265 -0.149)"><rect class="a" width="40" height="40" transform="translate(0.265 0.149)"/><path class="b" d="M13.433,32.743a3.362,3.362,0,0,1-3.358-3.359h6.716A3.362,3.362,0,0,1,13.433,32.743ZM26.866,27.7H0V26.026l3.358-3.358v-8.4A11.913,11.913,0,0,1,5.329,7.455,9.271,9.271,0,0,1,10.914,3.66V2.519a2.519,2.519,0,1,1,5.038,0V3.66a9.284,9.284,0,0,1,5.578,3.8,11.9,11.9,0,0,1,1.978,6.81v8.4l3.358,3.358V27.7Z" transform="translate(7.017 3.358)"/></g></svg>