<svg xmlns="http://www.w3.org/2000/svg" width="25.244" height="18.987" viewBox="0 0 25.244 18.987"><defs><style>.a{fill:#b5b5b5;}</style></defs><path class="a" d="M25.244,15.44v3.7a3.132,3.132,0,0,1-1.075,1.576,4.533,4.533,0,0,1-2.86.96h-6.8V20.547a.956.956,0,0,0-1.022-.865H11.753a.956.956,0,0,0-1.022.865v1.125h-6.8a4.533,4.533,0,0,1-2.86-.96A3.126,3.126,0,0,1,0,19.137v-3.7a1.6,1.6,0,0,1,1.713-1.449H23.531A1.6,1.6,0,0,1,25.244,15.44ZM13.491,23.663a.156.156,0,0,0,.165-.14V20.547a.156.156,0,0,0-.165-.14H11.753a.157.157,0,0,0-.166.14v2.976a.156.156,0,0,0,.166.14Zm11.273-2.428A5.474,5.474,0,0,1,21.31,22.4h-6.8v1.126a.957.957,0,0,1-1.022.864H11.753a.956.956,0,0,1-1.022-.864V22.4h-6.8A5.474,5.474,0,0,1,.481,21.235,4.444,4.444,0,0,1,0,20.782V28.63a1.6,1.6,0,0,0,1.713,1.449H23.531a1.6,1.6,0,0,0,1.713-1.449V20.782A4.433,4.433,0,0,1,24.763,21.235Zm-8.191-9.718a1.879,1.879,0,0,0-1.212-.425H9.884a1.879,1.879,0,0,0-1.212.425,1.342,1.342,0,0,0-.5,1.025v.725H9.627v-.725a.2.2,0,0,1,.076-.154.278.278,0,0,1,.182-.064h5.477a.279.279,0,0,1,.181.064.2.2,0,0,1,.076.154v.725h1.456v-.725A1.342,1.342,0,0,0,16.572,11.517Z" transform="translate(0 -11.092)"/></svg>