<svg xmlns="http://www.w3.org/2000/svg" width="12.57" height="12.597" viewBox="0 0 12.57 12.597"><defs><style>.a{fill:#bab7b7;}</style></defs><g transform="translate(-0.539)"><g transform="translate(0.539 0)"><path class="a" d="M12.78,9.245,11.022,7.487a1.169,1.169,0,0,0-1.946.439,1.2,1.2,0,0,1-1.381.753A5.421,5.421,0,0,1,4.43,5.415a1.138,1.138,0,0,1,.753-1.381,1.169,1.169,0,0,0,.439-1.946L3.865.33a1.254,1.254,0,0,0-1.7,0L.977,1.522C-.216,2.778,1.1,6.106,4.053,9.056s6.278,4.332,7.534,3.076L12.78,10.94A1.254,1.254,0,0,0,12.78,9.245Z" transform="translate(-0.539 0)"/></g></g></svg>