<svg xmlns="http://www.w3.org/2000/svg" width="26.578" height="22.148" viewBox="0 0 26.578 22.148"><defs><style>.a{fill:#2680eb;}</style></defs><g transform="translate(0 -2)"><path class="a" d="M15.752,6.983a1.108,1.108,0,0,1-1.107-1.107V4.215h-4.43V5.876A1.107,1.107,0,0,1,8,5.876V4.215A2.217,2.217,0,0,1,10.215,2h4.43a2.217,2.217,0,0,1,2.215,2.215V5.876A1.108,1.108,0,0,1,15.752,6.983Z" transform="translate(0.859)"/><path class="a" d="M14.075,15.784a2.281,2.281,0,0,1-.786.133,2.427,2.427,0,0,1-.853-.155L0,11.62v8.45a3.044,3.044,0,0,0,3.045,3.045H23.533a3.044,3.044,0,0,0,3.045-3.045V11.62Z" transform="translate(0 1.033)"/><path class="a" d="M26.578,8.045v2.536L13.555,14.923a.82.82,0,0,1-.532,0L0,10.581V8.045A3.044,3.044,0,0,1,3.045,5H23.533A3.044,3.044,0,0,1,26.578,8.045Z" transform="translate(0 0.322)"/></g></svg>