<svg xmlns="http://www.w3.org/2000/svg" width="37.289" height="32.31" viewBox="0 0 37.289 32.31"><defs><style>.a{fill:#d1d1d1;}</style></defs><g transform="translate(-0.994 -3)"><path class="a" d="M2.244,35.31A1.243,1.243,0,0,1,1,33.931l.957-8.7a1.243,1.243,0,0,1,.36-.733L22.649,4.168a3.977,3.977,0,0,1,5.629,0l3.865,3.865a3.977,3.977,0,0,1,0,5.629L11.825,33.98a1.243,1.243,0,0,1-.733.36l-8.7.957Zm8.7-2.212Zm-6.549-7.17-.746,6.735,6.735-.746L30.391,11.91a1.491,1.491,0,0,0,0-2.113L26.514,5.92a1.491,1.491,0,0,0-2.113,0Z" transform="translate(0)"/><path class="a" d="M24.751,16.208a1.243,1.243,0,0,1-.882-.36L16.151,8.106a1.248,1.248,0,1,1,1.765-1.765l7.742,7.742a1.243,1.243,0,0,1-.907,2.125Z" transform="translate(3.59 0.722)"/><rect class="a" width="13.682" height="2.485" transform="translate(10.073 24.485) rotate(-45)"/><path class="a" d="M34.126,29.485H14.243a1.243,1.243,0,1,1,0-2.485H34.126a1.243,1.243,0,1,1,0,2.485Z" transform="translate(2.914 5.825)"/></g></svg>