<svg xmlns="http://www.w3.org/2000/svg" width="150" height="28.731" viewBox="0 0 150 28.731"><defs><style>.a{fill:#0d67fc;}.b{fill:#f79d30;}</style></defs><g transform="translate(-1.9 -25.542)"><path class="a" d="M406.447,35.884a12.422,12.422,0,0,0-3.663-6.179,11.911,11.911,0,0,0-5.648-2.908,16.264,16.264,0,0,0-5.452-.224,12.19,12.19,0,0,0-3.411.839,9.984,9.984,0,0,0-4.445,3.607,13.056,13.056,0,0,0-2.46,5.676c-.28,1.705-.475,3.467-.643,5.172a14.73,14.73,0,0,1-1.258,4.585,7.3,7.3,0,0,1-5.788,4.334,20.85,20.85,0,0,1-6.85-.28,7.259,7.259,0,0,1-5.4-4.39,14.819,14.819,0,0,1-1.118-4.669,11.708,11.708,0,0,1,1.342-6.878,8.422,8.422,0,0,1,2.852-3.327,6.736,6.736,0,0,1,4.725-1.062,5.811,5.811,0,0,1,4.306,2.321,8.463,8.463,0,0,1,1.622,4.473,1.049,1.049,0,0,1-1.118,1.146h-5.955a3.594,3.594,0,0,0-.979.14A1.689,1.689,0,0,0,366.1,40.3a1.758,1.758,0,0,0,1.761,1.342H376.7a3.516,3.516,0,0,0,.923-.14,3.146,3.146,0,0,0,2.125-3.048,14.227,14.227,0,0,0-.587-4.334,9.411,9.411,0,0,0-4.585-6.1,10.462,10.462,0,0,0-4.725-1.342,12.262,12.262,0,0,0-6.738,1.286,11.68,11.68,0,0,0-5.452,5.9,17.331,17.331,0,0,0-1.4,9.422,12.627,12.627,0,0,0,2.321,6.1,12.966,12.966,0,0,0,10.205,5.4,28.818,28.818,0,0,0,5.592-.084,12.288,12.288,0,0,0,4.054-1.118,9.565,9.565,0,0,0,4.166-4.25,17.427,17.427,0,0,0,2.181-6.151c.2-1.482.475-2.908.7-4.334a11,11,0,0,1,1.845-5.033,7.972,7.972,0,0,1,8.555-3.243,6.654,6.654,0,0,1,4.194,3.1A13.053,13.053,0,0,1,402,39.463v2.544a5.062,5.062,0,0,0-.084.643,10.809,10.809,0,0,1-2.6,6.011,7.184,7.184,0,0,1-7.437,2.321,7.88,7.88,0,0,0-4.753.2,1.136,1.136,0,0,0-.783.979.978.978,0,0,0,.587,1.007,11.854,11.854,0,0,0,3.243,1.342,14.662,14.662,0,0,0,7.3-.084,12.439,12.439,0,0,0,7.633-5.732,15.5,15.5,0,0,0,1.985-7.8A17.913,17.913,0,0,0,406.447,35.884Z" transform="translate(-255.19 -0.652)"/><path class="b" d="M277.487,50.008H294.15v4.11H271.419c-.419,0-.419,0-.419-.419v-2.4a.687.687,0,0,1,.14-.419c2.349-3.1,4.725-6.151,7.074-9.226,1.761-2.265,3.523-4.585,5.312-6.85,1.258-1.566,2.6-3.131,3.886-4.669a2.74,2.74,0,0,1,.2-.28c-.2,0-.28-.056-.419-.056H272.51c-.28,0-.363-.056-.363-.336V25.6H293.87v.923c0,.7-.056,1.426-.056,2.125a.516.516,0,0,1-.14.336c-1.761,2.265-3.523,4.529-5.228,6.794-1.538,1.985-3.047,4.026-4.613,6.011-1.761,2.265-3.551,4.585-5.368,6.85-.28.363-.587.7-.867,1.007A.349.349,0,0,1,277.487,50.008Z" transform="translate(-193.862 -0.042)"/><path class="b" d="M217.562,26.229c.056,1.789.14,3.607.2,5.4a.1.1,0,0,1,.084.056c.056-.084.14-.14.2-.224a10.839,10.839,0,0,1,1.9-3.187,7.873,7.873,0,0,1,3.886-2.46,6.842,6.842,0,0,1,3.187-.14c.056,0,.084.056.14.056v4.753a1.087,1.087,0,0,1-.419-.056,6.573,6.573,0,0,0-3.607.336,6.044,6.044,0,0,0-2.992,2.4,9.213,9.213,0,0,0-1.538,4.11,15.032,15.032,0,0,0-.2,1.929V54.049h-4.977c-.14-9.282.2-18.537-.224-27.847C214.57,26.229,216.052,26.229,217.562,26.229Z" transform="translate(-152.223 0)"/><path class="b" d="M128.211,41.027H109.535c-.2,0-.363-.056-.363.28a10.907,10.907,0,0,0,1.342,5.116,7.621,7.621,0,0,0,4.166,3.411,11.792,11.792,0,0,0,4.39.643,14.637,14.637,0,0,0,3.83-.419c.979-.224,1.9-.559,2.824-.867.224-.084.336-.056.363.2q.294,1.174.5,2.265a1.706,1.706,0,0,1,.084.363c.14.7.14.7-.559.979a19.835,19.835,0,0,1-3.914,1.062,30.494,30.494,0,0,1-3.551.336,21.44,21.44,0,0,1-3.523-.2,11.723,11.723,0,0,1-8.3-5.089,13.389,13.389,0,0,1-1.985-4.893,19.352,19.352,0,0,1-.224-5.676,15.592,15.592,0,0,1,1.705-5.9,12.06,12.06,0,0,1,5.368-5.452,12.473,12.473,0,0,1,6.431-1.258,10.1,10.1,0,0,1,5.676,1.985,10.5,10.5,0,0,1,2.684,2.992A14.5,14.5,0,0,1,128.1,35.1a17.8,17.8,0,0,1,.336,5.172A2.355,2.355,0,0,0,128.211,41.027ZM123.6,37.476v-.2a10.122,10.122,0,0,0-.7-3.747,6.078,6.078,0,0,0-5.089-4,7.284,7.284,0,0,0-3.1.224,6.843,6.843,0,0,0-3.523,2.488,10.479,10.479,0,0,0-1.761,3.747,12.618,12.618,0,0,0-.28,1.482Z" transform="translate(-73.916 -0.259)"/><path class="b" d="M28.88,25.912c-.084.28-.224.587-.336.867-.7,1.789-1.4,3.607-2.125,5.4-.587,1.538-1.2,3.1-1.845,4.613-.7,1.789-1.4,3.607-2.125,5.368-.783,1.929-1.538,3.914-2.321,5.871-.587,1.482-1.146,2.964-1.761,4.445-.224.559-.419,1.062-.643,1.622-.056.14-.14.224-.28.2H12.916c-.2,0-.224-.056-.336-.224-.839-2.125-1.622-4.306-2.46-6.431-.867-2.349-1.789-4.725-2.684-7.074-.7-1.845-1.4-3.663-2.125-5.508-.587-1.761-1.23-3.523-1.929-5.228-.475-1.2-.923-2.4-1.4-3.607a.977.977,0,0,1-.084-.336c.14,0,.224-.056.336-.056H7.072a.438.438,0,0,1,.475.336c.587,1.789,1.258,3.607,1.9,5.4.5,1.4,1.007,2.824,1.482,4.194.5,1.426.979,2.852,1.482,4.306.475,1.286.923,2.544,1.342,3.83.363,1.062.7,2.181,1.007,3.243.2.587.336,1.2.5,1.761,0,.056.084.084.14.14.056-.056.084-.084.084-.14.336-1.007.587-2.041.979-3.048.363-1.118.727-2.181,1.118-3.271.5-1.426,1.007-2.852,1.482-4.306.5-1.482,1.007-2.908,1.538-4.39.559-1.65,1.146-3.327,1.705-5.033.336-.923.643-1.9.979-2.824.056-.2.14-.224.336-.224h4.949A1.21,1.21,0,0,1,28.88,25.912Z" transform="translate(0 -0.186)"/></g></svg>